<?xml version="1.0" encoding="utf-8"?>
<svg viewBox="288.4873046875 1165.2899169921875 3433.35107421875 1056.4801025390625" width="3433.35107421875" height="1056.4801025390625" xmlns="http://www.w3.org/2000/svg">
  <defs>
    <linearGradient gradientUnits="objectBoundingBox" id="textFill" gradientTransform="rotate(90)" x1="0" y1="0" x2="1" y2="0">
      <stop offset="0" stop-color="#42515F"/>
      <stop offset="1" stop-color="#101F2D"/>
    </linearGradient>
  </defs>
  <g transform="matrix(23.25581394517144, 0, 0, 23.25581394517144, 0, -5.684341886080802e-14)">
    <g transform="matrix(1.2401119160412588, 0, 0, 1.2401119160412588, -30.237454096790277, -11.847923119113823)">
      <g transform="matrix(0.8413043603624987, 0, 0, 0.8413043603624987, 75.68000112771989, 60.99815308285634)">
        <text font-family="Rounded Elegance" x="-1.8333333333333321" font-size="24" y="18.683333333333334" fill="url(#textFill)" style="white-space: pre;">InfraBox</text>
      </g>
      <g transform="matrix(0.1471382658581258, 0, 0, 0.1471382658581258, 31.616643557941426, 46.35683027276416)">
        <g>
          <path fill="#293846" id="dcs3" d="M224.323,175.54l18.528-10.69c-6.204,24.119-20.677,44.963-40.195,59.325v-21.35   c7.648-7.478,13.979-16.285,18.601-26.066C222.317,176.498,223.353,176.102,224.323,175.54z M141.657,48.162   c13.713,0.3,26.675,3.664,38.237,9.456l16.388-9.464c-16.42-10.35-35.831-16.364-56.63-16.364c-7.423,0-14.667,0.768-21.67,2.215   l21.128,12.21C140.051,46.753,140.901,47.417,141.657,48.162z M85.711,210.611c-15.787-11.822-27.569-28.685-32.982-48.167   l-18.762-10.833c4.186,33.496,23.977,62.205,51.855,78.609c-0.055-0.569-0.111-1.14-0.111-1.717V210.611z"/>
          <path fill="#1A999C" id="kcs" d="M71.262,163.717l-45.707-26.39c-4.155-2.397-6.734-6.861-6.734-11.656V72.898   c0-3.45,3.743-5.603,6.734-3.885l45.707,26.391c4.158,2.397,6.73,6.86,6.73,11.656v52.773   C77.992,163.283,74.252,165.443,71.262,163.717z M30.152,61.044l45.707,26.391c4.155,2.397,9.306,2.397,13.464,0l45.707-26.391   c2.991-1.725,2.991-6.045,0-7.771L89.323,26.883c-4.15-2.398-9.302-2.398-13.464,0L30.152,53.273   C27.161,54.999,27.161,59.319,30.152,61.044z M139.631,137.327c4.146-2.397,6.727-6.861,6.727-11.656V72.898   c0-3.45-3.739-5.603-6.727-3.885l-45.71,26.391c-4.158,2.397-6.73,6.86-6.73,11.656v52.773c0,3.45,3.743,5.61,6.73,3.885   L139.631,137.327z"/>
          <path fill="#0F5657" id="dcs1" d="M165.895,75.114l38.482-22.22c3.497-2.018,7.834-2.018,11.331,0l38.49,22.22   c2.517,1.464,2.517,5.096,0,6.552l-38.49,22.212c-3.497,2.018-7.834,2.018-11.331,0l-38.482-22.212   C163.375,80.21,163.375,76.578,165.895,75.114z M205.5,165.206v-44.433c0-4.044-2.172-7.794-5.661-9.82L161.345,88.74   c-2.509-1.456-5.658,0.364-5.658,3.268v44.433c0,4.036,2.16,7.795,5.658,9.813l38.494,22.22   C202.359,169.929,205.5,168.11,205.5,165.206z M258.733,88.74l-38.489,22.212c-3.49,2.018-5.658,5.776-5.658,9.813v44.44   c0,2.904,3.142,4.724,5.658,3.268l38.489-22.22c3.502-2.018,5.674-5.777,5.674-9.813V92.008   C264.407,89.104,261.257,87.284,258.733,88.74z"/>
          <path fill="#23C6C8" id="dcs2" d="M149.373,197.768c-3.209,1.852-7.185,1.852-10.39,0L103.706,177.4   c-2.311-1.33-2.311-4.661,0-5.998l35.277-20.369c3.213-1.852,7.185-1.852,10.39,0l35.289,20.369c2.307,1.337,2.307,4.668,0,5.998   L149.373,197.768z M134.337,205.135l-35.277-20.368c-2.311-1.33-5.191,0.332-5.191,2.999v40.737c0,3.703,1.986,7.146,5.191,8.997   l35.277,20.368c2.319,1.338,5.199-0.332,5.199-2.991v-40.745C139.537,210.429,137.55,206.987,134.337,205.135z M189.298,184.767   l-35.28,20.368c-3.213,1.852-5.199,5.294-5.199,8.997v40.745c0,2.659,2.884,4.329,5.199,2.991l35.28-20.368   c3.209-1.852,5.195-5.294,5.195-8.997v-40.737C194.494,185.099,191.605,183.437,189.298,184.767z"/>
        </g>
      </g>
    </g>
  </g>
</svg>
